<svg viewBox="0 0 500 500" xml:space="preserve" width="32" height="32" xmlns="http://www.w3.org/2000/svg"><g style="fill:#f0d;fill-opacity:1"><path d="M241.656 396.366c-28.235 0-40.909-18.627-43.748-29.488-.881-3.368 1.142-6.811 4.515-7.69a6.314 6.314 0 0 1 7.693 4.469c.279.995 6.264 21.104 33.569 20.063V148.394c-6.69-6.854-21.645-17.693-41.367-5.093a6.322 6.322 0 0 1-8.721-1.911 6.298 6.298 0 0 1 1.914-8.707c20.499-13.096 37.431-7.619 48.174-.533V33.92c0-11.276-5.677-21.405-15.574-27.789C222.951 2.802 216.96.78 210.833.342c-3.601-.257-14.582-.447-15.654 3.267-.169.599-3.605 13.401 5.49 22.962 5.601 5.889-3.535 14.59-9.156 8.681-8.129-8.546-9.799-18.557-9.698-25.714-12.896 7.957-23.888 18.864-32.831 32.566 12.551 7.832 27.799 25.289 24.526 54.23-.903 7.993-13.466 6.705-12.547-1.414 3.304-29.214-16.351-41.123-22.087-43.949-29.806 2.987-54.339 25.871-59.966 56.213a68.851 68.851 0 0 0-.613 21.289 6.302 6.302 0 0 1-4.211 6.757c-11.065 3.797-21.276 12.53-29.346 24.352 10.565 6.391 22.256 19.548 16.778 39.774-2.146 7.927-14.309 4.532-12.19-3.291 3.81-14.07-4.949-21.972-10.969-25.596-4.32 8.629-7.61 18.311-9.513 28.576-5.104 27.528.586 54.512 14.503 69.802 4.517-.238 12.998-.146 21.975 2.753 12.333 3.984 27.905 14.015 32.044 39.186 1.306 7.938-11.138 10.077-12.461 2.042-5.105-31.044-32.464-31.893-40.778-31.416-7.712 9.93-13.023 21.898-15.41 34.774-5.751 31.015 6.777 61.235 30.467 73.489a6.3 6.3 0 0 1 3.394 6.021c-1.857 27.471 20.105 52.752 51.914 60.908 3.737-16.947 16.775-41.418 47.815-45.362 3.453-.439 6.62 2.003 7.061 5.457a6.306 6.306 0 0 1-5.466 7.049c-30.758 3.908-36.722 32.389-37.731 39.419 8.461 17.797 27.28 31.205 49.774 35.453 2.228-12.164 10.311-27.946 30.79-29.471 3.46-.26 6.507 2.344 6.766 5.817a6.305 6.305 0 0 1-5.827 6.754c-13.408.999-17.735 11.374-19.131 18.252 22.208.609 43.276-8.128 55.14-23.377v-80.262c-.684.02-1.362.033-2.029.033zm-64.299-254.464c4.649 0 8.418 3.762 8.418 8.404 0 4.641-3.769 8.404-8.418 8.404-4.649 0-8.418-3.763-8.418-8.404 0-4.642 3.769-8.404 8.418-8.404zM98.662 344.521c-4.649 0-8.418-3.763-8.418-8.404s3.769-8.404 8.418-8.404c4.649 0 8.418 3.763 8.418 8.404.001 4.641-3.768 8.404-8.418 8.404zm32.016-88.807c-3.487 0-6.314-2.822-6.314-6.303a6.308 6.308 0 0 1 6.28-6.303c2.25-.028 19.489-.901 24.692-20.066-5.333 1.465-10.826 2.034-16.138 2.034-17.678 0-33.359-6.287-34.517-6.762a6.298 6.298 0 0 1-3.44-8.226 6.317 6.317 0 0 1 8.232-3.438c.419.171 42.192 16.826 59.426-7.37 2.019-2.838 5.961-3.5 8.805-1.483a6.297 6.297 0 0 1 1.486 8.79c-2.946 4.136-6.324 7.416-9.977 9.997-2.6 30.839-26.063 39.13-38.535 39.13zm42.38 59.039c-4.164 6.863-15.039.457-10.8-6.531.681-1.123 17.031-27.474 45.433-25.304a6.307 6.307 0 0 1 5.811 6.768c-.267 3.472-3.331 6.053-6.779 5.801-20.764-1.601-33.538 19.057-33.665 19.266-1.187 1.957.127-.209 0 0z" style="fill:#d0f;fill-opacity:1"/><g style="fill:red;fill-opacity:1"><path d="M415.284 213.248c0-5.214-4.248-9.455-9.471-9.455s-9.471 4.241-9.471 9.455 4.248 9.455 9.471 9.455 9.471-4.242 9.471-9.455zm-158.971 11.429h40.113v50.677h-40.113z" style="fill:red;fill-opacity:1"/><path d="M454.261 279.162a6.297 6.297 0 0 1 .456-8.553c15.32-14.852 21.771-43.04 16.436-71.813-5.721-30.848-23.901-56.492-45.24-63.814a6.303 6.303 0 0 1-4.211-6.757 68.887 68.887 0 0 0-.613-21.29c-5.732-30.904-31.072-54.086-61.623-56.373a6.313 6.313 0 0 1-4.988-3.122c-11.881-20.442-27.922-35.313-47.676-44.202-11.369-5.113-24.42-4.127-34.914 2.643-9.897 6.385-15.574 16.514-15.574 27.789v61.8h48.735V71.897c-9.116-2.72-15.784-11.158-15.784-21.132 0-12.164 9.913-22.061 22.098-22.061 12.185 0 22.098 9.897 22.098 22.061 0 9.973-6.668 18.412-15.784 21.132v29.876c0 3.481-2.827 6.303-6.314 6.303h-24.431v30.237h56.566c2.724-9.101 11.177-15.758 21.167-15.758 12.184 0 22.098 9.897 22.098 22.061s-9.913 22.061-22.098 22.061c-9.99 0-18.443-6.657-21.167-15.758h-62.88c-3.487 0-6.314-2.822-6.314-6.303v-36.54h-17.991v103.995h13.68v-18.997c0-3.481 2.827-6.303 6.314-6.303s6.314 2.822 6.314 6.303v18.997h20.12c3.487 0 6.314 2.822 6.314 6.303v10.631h18.155c3.487 0 6.314 2.822 6.314 6.303s-2.827 6.303-6.314 6.303h-18.155v16.808h18.155c3.487 0 6.314 2.822 6.314 6.303s-2.827 6.303-6.314 6.303h-18.155v10.631c0 3.481-2.827 6.303-6.314 6.303h-20.12v17.499c0 3.481-2.827 6.303-6.314 6.303s-6.314-2.822-6.314-6.303v-17.499h-13.68v103.995h17.991v-36.54c0-3.481 2.827-6.303 6.314-6.303h62.88c2.724-9.101 11.177-15.758 21.167-15.758 12.184 0 22.098 9.897 22.098 22.061s-9.913 22.061-22.098 22.061c-9.99 0-18.443-6.657-21.167-15.758h-56.566v30.237h24.431c3.487 0 6.314 2.822 6.314 6.303v29.876c9.116 2.72 15.784 11.158 15.784 21.132 0 12.164-9.913 22.061-22.098 22.061-12.185 0-22.098-9.897-22.098-22.061 0-9.973 6.668-18.412 15.784-21.132V404.56h-48.735v71.783c13.806 17.743 40.066 26.684 66.098 22.323 23.854-3.999 43.819-18.275 52.105-37.258a6.313 6.313 0 0 1 4.681-3.687c35.169-6.252 60.199-33.025 58.222-62.277a6.3 6.3 0 0 1 3.394-6.021c23.69-12.254 36.217-42.473 30.467-73.488-2.551-13.753-8.436-26.47-17.02-36.773zm-26.35 7.622c0 12.164-9.913 22.061-22.098 22.061-12.185 0-22.098-9.897-22.098-22.061 0-9.973 6.668-18.412 15.784-21.132V234.38c-9.116-2.72-15.784-11.158-15.784-21.132 0-12.164 9.913-22.061 22.098-22.061 12.185 0 22.098 9.897 22.098 22.061 0 9.973-6.668 18.412-15.784 21.132v31.273c9.116 2.719 15.784 11.158 15.784 21.131z" style="fill:red;fill-opacity:1"/><g style="fill:red;fill-opacity:1"><ellipse cx="311.362" cy="449.289" rx="9.471" ry="9.455" style="fill:red;fill-opacity:1"/><ellipse cx="364.657" cy="355.416" rx="9.471" ry="9.455" style="fill:red;fill-opacity:1"/><ellipse cx="405.813" cy="287.026" rx="9.471" ry="9.455" style="fill:red;fill-opacity:1"/><ellipse cx="364.657" cy="144.616" rx="9.471" ry="9.455" style="fill:red;fill-opacity:1"/><ellipse cx="311.362" cy="50.537" rx="9.471" ry="9.455" style="fill:red;fill-opacity:1"/></g></g></g></svg>